<svg width="173" height="252" viewBox="0 0 173 252" fill="none" xmlns="http://www.w3.org/2000/svg">
<path d="M50.1576 27.8C49.0576 28.1 47.9576 28.7 46.8576 28.8C31.8576 29.1 30.7576 35.2 31.9576 47C32.5576 53 37.0576 56 41.2576 58.4C71.1576 75.7 101.158 92.7 131.258 109.6C143.458 116.4 153.858 125.4 163.958 134.8C168.058 138.6 170.058 145 170.558 150.7C172.158 166.3 173.358 181.9 170.758 197.6C167.758 215.5 157.758 228.7 143.758 239.5C132.058 248.4 119.358 252.8 104.558 251.2C98.5576 250.6 92.3576 251.2 86.3576 251.1C84.5576 251.1 82.1576 251.9 81.3576 249.8C80.5576 247.5 82.9576 246.7 84.3576 245.7C94.3576 238.9 104.458 232.2 114.558 225.5C116.458 224.2 118.258 222.5 120.358 221.6C142.558 212.4 144.458 193.5 143.658 173.3C143.458 169.3 142.358 165.4 142.058 161.5C141.158 146.8 129.258 142 118.758 136.2C88.6576 119.6 58.3576 103.4 29.2576 85.2C19.7576 79.3 12.1576 71.2 5.75762 62.3C-8.64238 42.3 5.65761 6.8 29.9576 1.2C32.2576 0.700001 34.5576 0.4 36.8576 0C52.7576 1 68.6576 0.400002 84.4576 0.400002C97.2576 0.400002 110.158 1 122.958 0C148.058 8.4 165.558 26.1 163.658 50.7C163.358 54.5 162.658 56.3 158.558 55.9C156.058 55.6 153.458 55.8 150.858 55.8C137.458 55.7 137.458 55.7 134.458 43C132.158 33.2 130.058 31.2 120.358 29.6C118.058 29.2 115.658 29.7 113.658 28.1C112.458 26.5 110.658 27.2 109.158 27.2C90.7576 27.1 72.3576 27.2 53.9576 27.2C52.7576 27 51.2576 26.5 50.1576 27.8Z" fill="#65E3B8"/>
<path d="M37.7576 146.8C52.2576 153.9 63.8576 163.4 76.7576 170.8C81.7576 173.7 86.5576 177.2 91.4576 180.2C104.758 188.5 105.258 205.9 92.2576 214.8C77.8576 224.8 63.3576 234.6 48.8576 244.5C46.5576 246.1 44.1576 248.3 41.2576 246.7C38.5576 245.1 39.9576 242 39.9576 239.6C39.9576 219.8 40.0576 219.8 56.7576 208.7C59.0576 207.1 61.4576 205.6 63.7576 204C72.2576 198.1 72.2576 197.9 62.8576 192.9C40.0576 180.7 40.0576 180.7 38.2576 154.9C38.2576 152.5 38.0576 150.2 37.7576 146.8Z" fill="#65E3B8"/>
</svg>
